<?xml version="1.0" encoding="UTF-8"?>
<!DOCTYPE svg PUBLIC "-//W3C//DTD SVG 1.1//EN" "http://www.w3.org/Graphics/SVG/1.1/DTD/svg11.dtd">
<svg xmlns="http://www.w3.org/2000/svg" version="1.1" width="450px" height="450px" style="shape-rendering:geometricPrecision; text-rendering:geometricPrecision; image-rendering:optimizeQuality; fill-rule:evenodd; clip-rule:evenodd" xmlns:xlink="http://www.w3.org/1999/xlink">
<g><path style="opacity:1" fill="#9b00c8" d="M 219.5,104.5 C 229.765,111.597 238.598,120.264 246,130.5C 257.999,148.164 268.166,166.831 276.5,186.5C 274.589,185.925 272.922,184.925 271.5,183.5C 271.167,182.5 270.5,181.833 269.5,181.5C 257.522,156.367 242.189,133.534 223.5,113C 220.5,111.167 217.5,109.333 214.5,107.5C 213.893,107.624 213.56,107.957 213.5,108.5C 212.188,107.855 211.188,106.855 210.5,105.5C 213.428,104.516 216.428,104.183 219.5,104.5 Z"/></g>
<g><path style="opacity:1" fill="#b900e1" d="M 219.5,104.5 C 230.305,107.463 239.472,113.13 247,121.5C 259.449,137.058 268.782,154.391 275,173.5C 276.651,176.802 278.318,180.136 280,183.5C 280.483,182.552 280.649,181.552 280.5,180.5C 280.833,180.5 281.167,180.5 281.5,180.5C 281.366,182.292 281.699,183.958 282.5,185.5C 284.151,189.775 285.318,194.108 286,198.5C 283.381,194.05 280.214,190.05 276.5,186.5C 268.166,166.831 257.999,148.164 246,130.5C 238.598,120.264 229.765,111.597 219.5,104.5 Z"/></g>
<g><path style="opacity:0.984" fill="#d501f9" d="M 280.5,180.5 C 280.649,181.552 280.483,182.552 280,183.5C 278.318,180.136 276.651,176.802 275,173.5C 268.782,154.391 259.449,137.058 247,121.5C 239.472,113.13 230.305,107.463 219.5,104.5C 216.428,104.183 213.428,104.516 210.5,105.5C 211.188,106.855 212.188,107.855 213.5,108.5C 217.25,112.34 220.25,116.673 222.5,121.5C 220.605,120.027 218.939,118.36 217.5,116.5C 212.234,109.534 205.234,106.368 196.5,107C 197.793,107.49 199.127,107.657 200.5,107.5C 200.662,109.527 200.495,111.527 200,113.5C 195.777,124.999 192.277,136.665 189.5,148.5C 192.939,148.253 196.272,148.586 199.5,149.5C 201.894,150.015 204.228,150.681 206.5,151.5C 208.028,152.309 209.694,152.976 211.5,153.5C 213.833,154.833 216.167,154.833 218.5,153.5C 218.369,154.376 218.702,155.043 219.5,155.5C 226.542,159.318 233.542,162.984 240.5,166.5C 240.5,167.167 240.833,167.5 241.5,167.5C 251.975,175.247 262.309,183.247 272.5,191.5C 278.548,198.215 284.881,204.548 291.5,210.5C 295.723,216.577 300.223,222.577 305,228.5C 307.397,233.627 310.064,238.627 313,243.5C 314.026,246.802 314.86,250.135 315.5,253.5C 307.602,243.586 299.769,232.919 292,221.5C 275.297,201.129 255.797,183.962 233.5,170C 212.883,158.785 190.883,154.452 167.5,157C 138.477,165.212 129.311,183.379 140,211.5C 141.841,215.183 144.174,218.516 147,221.5C 147.483,222.448 147.649,223.448 147.5,224.5C 146.11,225.899 145.11,227.566 144.5,229.5C 129.817,217.774 123.65,202.441 126,183.5C 131.464,162.371 144.964,149.871 166.5,146C 171.533,145.829 176.533,145.329 181.5,144.5C 186.229,132.682 190.395,120.682 194,108.5C 196.677,104.479 200.511,102.313 205.5,102C 218.514,100.004 230.847,102.004 242.5,108C 249.064,114.4 254.564,121.567 259,129.5C 261.473,135.779 264.473,141.779 268,147.5C 272.723,158.281 276.89,169.281 280.5,180.5 Z M 226.5,131.5 C 228.563,133.449 229.896,135.782 230.5,138.5C 233.316,147.996 236.649,157.329 240.5,166.5C 233.542,162.984 226.542,159.318 219.5,155.5C 218.702,155.043 218.369,154.376 218.5,153.5C 221.739,146.359 224.406,139.026 226.5,131.5 Z M 170.5,180.5 C 170.167,181.833 169.833,183.167 169.5,184.5C 169.5,184.833 169.5,185.167 169.5,185.5C 166.83,191.845 164.164,198.178 161.5,204.5C 159.087,202.015 157.42,199.015 156.5,195.5C 158.679,188.117 163.346,183.117 170.5,180.5 Z M 205.5,189.5 C 215.445,194.32 224.778,200.153 233.5,207C 222.643,211.006 211.476,213.839 200,215.5C 198.833,215.167 197.667,214.833 196.5,214.5C 199.66,206.173 202.66,197.84 205.5,189.5 Z"/></g>
<g><path style="opacity:1" fill="#b900e2" d="M 200.5,107.5 C 203.563,109.025 206.23,111.025 208.5,113.5C 204.99,125.388 201.99,137.388 199.5,149.5C 196.272,148.586 192.939,148.253 189.5,148.5C 192.277,136.665 195.777,124.999 200,113.5C 200.495,111.527 200.662,109.527 200.5,107.5 Z"/></g>
<g><path style="opacity:0.999" fill="#7d00ae" d="M 269.5,181.5 C 266.758,179.745 263.924,178.078 261,176.5C 253.206,161.897 243.706,148.564 232.5,136.5C 231.478,136.855 230.811,137.522 230.5,138.5C 229.896,135.782 228.563,133.449 226.5,131.5C 225.708,127.922 224.375,124.588 222.5,121.5C 220.25,116.673 217.25,112.34 213.5,108.5C 213.56,107.957 213.893,107.624 214.5,107.5C 217.5,109.333 220.5,111.167 223.5,113C 242.189,133.534 257.522,156.367 269.5,181.5 Z"/></g>
<g><path style="opacity:1" fill="#9b00c8" d="M 208.5,113.5 C 211.322,115.642 212.988,118.475 213.5,122C 211.396,131.916 209.062,141.75 206.5,151.5C 204.228,150.681 201.894,150.015 199.5,149.5C 201.99,137.388 204.99,125.388 208.5,113.5 Z"/></g>
<g><path style="opacity:0.981" fill="#600095" d="M 217.5,116.5 C 218.939,118.36 220.605,120.027 222.5,121.5C 224.375,124.588 225.708,127.922 226.5,131.5C 224.406,139.026 221.739,146.359 218.5,153.5C 216.167,154.833 213.833,154.833 211.5,153.5C 212.756,146.067 214.423,138.734 216.5,131.5C 216.458,128.041 215.791,124.708 214.5,121.5C 214.595,119.131 215.595,117.464 217.5,116.5 Z"/></g>
<g><path style="opacity:1" fill="#7a00ac" d="M 217.5,116.5 C 215.595,117.464 214.595,119.131 214.5,121.5C 215.791,124.708 216.458,128.041 216.5,131.5C 214.423,138.734 212.756,146.067 211.5,153.5C 209.694,152.976 208.028,152.309 206.5,151.5C 209.062,141.75 211.396,131.916 213.5,122C 212.988,118.475 211.322,115.642 208.5,113.5C 206.23,111.025 203.563,109.025 200.5,107.5C 199.127,107.657 197.793,107.49 196.5,107C 205.234,106.368 212.234,109.534 217.5,116.5 Z"/></g>
<g><path style="opacity:0.993" fill="#610096" d="M 269.5,181.5 C 270.5,181.833 271.167,182.5 271.5,183.5C 272.212,185.928 273.212,188.261 274.5,190.5C 274.043,191.298 273.376,191.631 272.5,191.5C 262.309,183.247 251.975,175.247 241.5,167.5C 240.833,167.5 240.5,167.167 240.5,166.5C 236.649,157.329 233.316,147.996 230.5,138.5C 230.811,137.522 231.478,136.855 232.5,136.5C 243.706,148.564 253.206,161.897 261,176.5C 263.924,178.078 266.758,179.745 269.5,181.5 Z"/></g>
<g><path style="opacity:0.853" fill="#8307af" d="M 319.5,146.5 C 319.607,144.621 319.107,144.288 318,145.5C 315.579,149.071 313.413,152.738 311.5,156.5C 310.833,156.833 310.167,157.167 309.5,157.5C 309.565,157.062 309.399,156.728 309,156.5C 307.961,157.71 306.794,158.71 305.5,159.5C 311.063,152.763 316.063,145.596 320.5,138C 320.833,137.833 321.167,137.667 321.5,137.5C 322.872,140.974 322.206,143.974 319.5,146.5 Z"/></g>
<g><path style="opacity:1" fill="#b800e1" d="M 315.5,253.5 C 318.534,258.867 316.868,262.2 310.5,263.5C 290.52,229.352 263.854,201.518 230.5,180C 218.878,173.352 206.545,168.685 193.5,166C 185.167,165.333 176.833,165.333 168.5,166C 144.772,173.829 138.605,188.995 150,211.5C 151.529,212.729 152.696,214.229 153.5,216C 151.219,218.757 149.219,221.591 147.5,224.5C 147.649,223.448 147.483,222.448 147,221.5C 144.174,218.516 141.841,215.183 140,211.5C 129.311,183.379 138.477,165.212 167.5,157C 190.883,154.452 212.883,158.785 233.5,170C 255.797,183.962 275.297,201.129 292,221.5C 299.769,232.919 307.602,243.586 315.5,253.5 Z M 170.5,180.5 C 170.167,181.833 169.833,183.167 169.5,184.5C 169.5,184.833 169.5,185.167 169.5,185.5C 166.83,191.845 164.164,198.178 161.5,204.5C 159.087,202.015 157.42,199.015 156.5,195.5C 158.679,188.117 163.346,183.117 170.5,180.5 Z M 205.5,189.5 C 202.66,197.84 199.66,206.173 196.5,214.5C 197.667,214.833 198.833,215.167 200,215.5C 211.476,213.839 222.643,211.006 233.5,207C 224.778,200.153 215.445,194.32 205.5,189.5 Z"/></g>
<g><path style="opacity:0.227" fill="#ba08e0" d="M 319.5,146.5 C 317.322,152.845 314.655,158.845 311.5,164.5C 311.649,163.448 311.483,162.448 311,161.5C 304.06,171.935 296.227,181.601 287.5,190.5C 286.402,189.399 286.235,188.066 287,186.5C 296.538,177.478 304.704,167.478 311.5,156.5C 313.413,152.738 315.579,149.071 318,145.5C 319.107,144.288 319.607,144.621 319.5,146.5 Z"/></g>
<g><path style="opacity:1" fill="#9901c6" d="M 310.5,263.5 C 308.208,265.267 305.542,266.267 302.5,266.5C 284.213,234.044 259.213,207.877 227.5,188C 216.403,181.953 204.736,177.286 192.5,174C 182.823,172.077 173.156,172.077 163.5,174C 148.786,181.921 145.619,193.087 154,207.5C 155.704,209.373 157.537,211.04 159.5,212.5C 157.39,219.453 154.557,226.12 151,232.5C 150.23,233.598 149.397,233.598 148.5,232.5C 147.128,231.488 145.795,230.488 144.5,229.5C 145.11,227.566 146.11,225.899 147.5,224.5C 149.219,221.591 151.219,218.757 153.5,216C 152.696,214.229 151.529,212.729 150,211.5C 138.605,188.995 144.772,173.829 168.5,166C 176.833,165.333 185.167,165.333 193.5,166C 206.545,168.685 218.878,173.352 230.5,180C 263.854,201.518 290.52,229.352 310.5,263.5 Z M 170.5,180.5 C 170.167,181.833 169.833,183.167 169.5,184.5C 169.5,184.833 169.5,185.167 169.5,185.5C 166.83,191.845 164.164,198.178 161.5,204.5C 159.087,202.015 157.42,199.015 156.5,195.5C 158.679,188.117 163.346,183.117 170.5,180.5 Z M 205.5,189.5 C 202.66,197.84 199.66,206.173 196.5,214.5C 197.667,214.833 198.833,215.167 200,215.5C 211.476,213.839 222.643,211.006 233.5,207C 224.778,200.153 215.445,194.32 205.5,189.5 Z"/></g>
<g><path style="opacity:1" fill="#67029a" d="M 309.5,157.5 C 301.873,168.128 292.873,177.461 282.5,185.5C 281.699,183.958 281.366,182.292 281.5,180.5C 282.922,180.291 284.255,179.791 285.5,179C 292.724,172.941 299.391,166.441 305.5,159.5C 306.794,158.71 307.961,157.71 309,156.5C 309.399,156.728 309.565,157.062 309.5,157.5 Z"/></g>
<g><path style="opacity:0.986" fill="#5f0194" d="M 302.5,266.5 C 295.557,266.024 289.224,263.858 283.5,260C 274.621,247.448 264.621,235.781 253.5,225C 252.552,224.517 251.552,224.351 250.5,224.5C 250.918,223.778 251.584,223.278 252.5,223C 247.646,218.645 242.646,214.478 237.5,210.5C 224.574,215.399 211.241,218.399 197.5,219.5C 197.5,220.833 197.5,222.167 197.5,223.5C 195.495,224.039 193.495,224.705 191.5,225.5C 188.871,231.085 186.538,236.751 184.5,242.5C 175.919,258.939 162.253,266.606 143.5,265.5C 143.414,264.504 143.748,263.671 144.5,263C 163.773,259.062 176.94,247.895 184,229.5C 187.833,218.667 191.667,207.833 195.5,197C 194.516,195.343 193.516,193.677 192.5,192C 193.593,189.557 194.593,187.057 195.5,184.5C 187.543,181.048 179.21,179.714 170.5,180.5C 163.346,183.117 158.679,188.117 156.5,195.5C 157.42,199.015 159.087,202.015 161.5,204.5C 161.717,207.421 161.051,210.087 159.5,212.5C 157.537,211.04 155.704,209.373 154,207.5C 145.619,193.087 148.786,181.921 163.5,174C 173.156,172.077 182.823,172.077 192.5,174C 204.736,177.286 216.403,181.953 227.5,188C 259.213,207.877 284.213,234.044 302.5,266.5 Z M 170.5,180.5 C 170.167,181.833 169.833,183.167 169.5,184.5C 169.5,184.833 169.5,185.167 169.5,185.5C 166.83,191.845 164.164,198.178 161.5,204.5C 159.087,202.015 157.42,199.015 156.5,195.5C 158.679,188.117 163.346,183.117 170.5,180.5 Z M 205.5,189.5 C 202.66,197.84 199.66,206.173 196.5,214.5C 197.667,214.833 198.833,215.167 200,215.5C 211.476,213.839 222.643,211.006 233.5,207C 224.778,200.153 215.445,194.32 205.5,189.5 Z"/></g>
<g><path style="opacity:0.995" fill="#d409f8" d="M 311.5,164.5 C 306.103,175.245 299.103,184.912 290.5,193.5C 288.5,193.5 287.5,192.5 287.5,190.5C 296.227,181.601 304.06,171.935 311,161.5C 311.483,162.448 311.649,163.448 311.5,164.5 Z"/></g>
<g><path style="opacity:0.993" fill="#d301f8" d="M 169.5,185.5 C 171.5,185.5 173.5,185.5 175.5,185.5C 168.3,208.233 158.134,229.566 145,249.5C 141.296,253.036 137.796,256.702 134.5,260.5C 133.508,260.672 132.842,260.338 132.5,259.5C 135.062,254.764 138.229,250.431 142,246.5C 144.885,242.131 147.051,237.464 148.5,232.5C 149.397,233.598 150.23,233.598 151,232.5C 154.557,226.12 157.39,219.453 159.5,212.5C 161.051,210.087 161.717,207.421 161.5,204.5C 164.164,198.178 166.83,191.845 169.5,185.5 Z"/></g>
<g><path style="opacity:1" fill="#b800e1" d="M 169.5,185.5 C 169.5,185.167 169.5,184.833 169.5,184.5C 175.746,184.362 181.413,186.028 186.5,189.5C 179.085,213.833 166.419,234.999 148.5,253C 143.938,255.78 139.272,258.28 134.5,260.5C 137.796,256.702 141.296,253.036 145,249.5C 158.134,229.566 168.3,208.233 175.5,185.5C 173.5,185.5 171.5,185.5 169.5,185.5 Z"/></g>
<g><path style="opacity:1" fill="#9b00c8" d="M 186.5,189.5 C 189.138,190.65 191.138,192.483 192.5,195C 186.466,218.078 174.799,237.744 157.5,254C 150.987,257.989 144.32,261.489 137.5,264.5C 134.76,264.244 132.426,263.244 130.5,261.5C 130.855,260.478 131.522,259.811 132.5,259.5C 132.842,260.338 133.508,260.672 134.5,260.5C 139.272,258.28 143.938,255.78 148.5,253C 166.419,234.999 179.085,213.833 186.5,189.5 Z"/></g>
<g><path style="opacity:1" fill="#8800b7" d="M 311.5,156.5 C 304.704,167.478 296.538,177.478 287,186.5C 286.235,188.066 286.402,189.399 287.5,190.5C 287.5,192.5 288.5,193.5 290.5,193.5C 289.632,195.402 288.632,197.235 287.5,199C 289.535,202.606 290.868,206.439 291.5,210.5C 284.881,204.548 278.548,198.215 272.5,191.5C 273.376,191.631 274.043,191.298 274.5,190.5C 273.212,188.261 272.212,185.928 271.5,183.5C 272.922,184.925 274.589,185.925 276.5,186.5C 280.214,190.05 283.381,194.05 286,198.5C 285.318,194.108 284.151,189.775 282.5,185.5C 292.873,177.461 301.873,168.128 309.5,157.5C 310.167,157.167 310.833,156.833 311.5,156.5 Z"/></g>
<g><path style="opacity:1" fill="#7900ab" d="M 170.5,180.5 C 179.21,179.714 187.543,181.048 195.5,184.5C 194.593,187.057 193.593,189.557 192.5,192C 193.516,193.677 194.516,195.343 195.5,197C 191.667,207.833 187.833,218.667 184,229.5C 176.94,247.895 163.773,259.062 144.5,263C 143.748,263.671 143.414,264.504 143.5,265.5C 141.621,264.659 139.621,264.325 137.5,264.5C 144.32,261.489 150.987,257.989 157.5,254C 174.799,237.744 186.466,218.078 192.5,195C 191.138,192.483 189.138,190.65 186.5,189.5C 181.413,186.028 175.746,184.362 169.5,184.5C 169.833,183.167 170.167,181.833 170.5,180.5 Z"/></g>
<g><path style="opacity:1" fill="#9900c6" d="M 238.5,218.5 C 224.783,222.899 210.783,226.233 196.5,228.5C 196.629,226.784 196.962,225.117 197.5,223.5C 210.091,222.082 222.424,219.416 234.5,215.5C 236.417,215.754 237.751,216.754 238.5,218.5 Z"/></g>
<g><path style="opacity:1" fill="#b804e1" d="M 238.5,218.5 C 238.833,219.833 239.167,221.167 239.5,222.5C 228.726,226.431 217.726,229.931 206.5,233C 202.786,233.32 199.119,233.82 195.5,234.5C 196.15,232.565 196.483,230.565 196.5,228.5C 210.783,226.233 224.783,222.899 238.5,218.5 Z"/></g>
<g><path style="opacity:0.949" fill="#7600a8" d="M 250.5,224.5 C 248.388,226.771 245.721,228.104 242.5,228.5C 241.5,226.5 240.5,224.5 239.5,222.5C 239.167,221.167 238.833,219.833 238.5,218.5C 237.751,216.754 236.417,215.754 234.5,215.5C 222.424,219.416 210.091,222.082 197.5,223.5C 197.5,222.167 197.5,220.833 197.5,219.5C 211.241,218.399 224.574,215.399 237.5,210.5C 242.646,214.478 247.646,218.645 252.5,223C 251.584,223.278 250.918,223.778 250.5,224.5 Z"/></g>
<g><path style="opacity:0.979" fill="#d604fa" d="M 239.5,222.5 C 240.5,224.5 241.5,226.5 242.5,228.5C 227.089,235.926 210.756,240.593 193.5,242.5C 193.963,239.779 194.629,237.112 195.5,234.5C 199.119,233.82 202.786,233.32 206.5,233C 217.726,229.931 228.726,226.431 239.5,222.5 Z"/></g>
<g><path style="opacity:1" fill="#8803b8" d="M 197.5,223.5 C 196.962,225.117 196.629,226.784 196.5,228.5C 196.483,230.565 196.15,232.565 195.5,234.5C 194.629,237.112 193.963,239.779 193.5,242.5C 190.5,242.5 187.5,242.5 184.5,242.5C 186.538,236.751 188.871,231.085 191.5,225.5C 193.495,224.705 195.495,224.039 197.5,223.5 Z"/></g>
<g><path style="opacity:0.96" fill="#5e0293" d="M 114.5,284.5 C 118.49,283.616 121.323,284.949 123,288.5C 126.424,298.28 129.924,307.946 133.5,317.5C 128.027,318.899 124.36,317.066 122.5,312C 118.833,311.333 115.167,311.333 111.5,312C 110.74,313.441 110.074,314.941 109.5,316.5C 106.572,317.484 103.572,317.817 100.5,317.5C 103.424,309.896 106.258,302.23 109,294.5C 110.592,290.979 112.425,287.646 114.5,284.5 Z M 116.5,297.5 C 117.481,299.396 118.481,301.396 119.5,303.5C 118.311,304.429 116.978,304.762 115.5,304.5C 115.674,302.139 116.007,299.806 116.5,297.5 Z"/></g>
<g><path style="opacity:0.895" fill="#5d0194" d="M 134.5,284.5 C 137.119,284.232 139.619,284.565 142,285.5C 142.333,293.5 142.667,301.5 143,309.5C 146.057,310.451 149.223,310.784 152.5,310.5C 152.875,313.397 152.375,316.063 151,318.5C 145.593,317.527 140.093,317.193 134.5,317.5C 134.5,306.5 134.5,295.5 134.5,284.5 Z"/></g>
<g><path style="opacity:0.98" fill="#5f0698" d="M 270.5,284.5 C 279.556,283.265 287.389,285.598 294,291.5C 296.424,296.57 297.091,301.903 296,307.5C 294.073,312.428 290.573,315.594 285.5,317C 281.911,317.207 278.411,317.707 275,318.5C 273.333,317.833 271.667,317.167 270,316.5C 269.694,305.742 269.86,295.076 270.5,284.5 Z M 278.5,292.5 C 285.975,293.807 288.809,298.141 287,305.5C 284.93,307.787 282.43,309.453 279.5,310.5C 278.504,304.537 278.171,298.537 278.5,292.5 Z"/></g>
<g><path style="opacity:0.946" fill="#5f0293" d="M 299.5,284.5 C 305.176,284.334 310.843,284.501 316.5,285C 318.396,286.808 318.896,288.975 318,291.5C 314.589,292.293 311.089,292.793 307.5,293C 306.167,294.333 306.167,295.667 307.5,297C 310.817,297.498 314.15,297.665 317.5,297.5C 317.5,300.167 317.5,302.833 317.5,305.5C 313.833,305.5 310.167,305.5 306.5,305.5C 306.286,307.144 306.62,308.644 307.5,310C 310.833,310.333 314.167,310.667 317.5,311C 319.288,314.406 318.455,316.906 315,318.5C 309.593,317.527 304.093,317.193 298.5,317.5C 298.19,306.419 298.523,295.419 299.5,284.5 Z"/></g>
<g><path style="opacity:0.982" fill="#5f0494" d="M 321.5,284.5 C 325.846,284.334 330.179,284.501 334.5,285C 342.24,286.3 345.073,290.8 343,298.5C 342.117,301.102 340.617,303.269 338.5,305C 341.906,309.02 344.906,313.187 347.5,317.5C 344.15,317.665 340.817,317.498 337.5,317C 334.21,314.386 331.71,311.219 330,307.5C 329.502,310.817 329.335,314.15 329.5,317.5C 326.552,317.777 323.719,317.444 321,316.5C 320.192,305.757 320.358,295.09 321.5,284.5 Z M 329.5,291.5 C 334.493,291.997 335.493,294.164 332.5,298C 331.552,298.483 330.552,298.649 329.5,298.5C 329.5,296.167 329.5,293.833 329.5,291.5 Z"/></g>
<g><path style="opacity:0.976" fill="#5f0494" d="M 248.5,301.5 C 248.029,300.099 247.362,298.766 246.5,297.5C 246.167,300.667 245.833,303.833 245.5,307C 245.515,310.576 246.182,313.742 247.5,316.5C 246.828,317.267 245.995,317.934 245,318.5C 243.887,317.289 242.72,317.289 241.5,318.5C 240.522,318.023 239.689,317.357 239,316.5C 233.507,319.967 229.673,318.634 227.5,312.5C 223.878,311.341 220.211,311.175 216.5,312C 216.301,315.322 214.635,317.489 211.5,318.5C 206.9,317.557 202.233,317.223 197.5,317.5C 196.259,314.026 194.259,311.026 191.5,308.5C 189.219,310.8 187.386,313.466 186,316.5C 184.915,317.293 183.748,317.96 182.5,318.5C 173.448,318.289 164.448,317.622 155.5,316.5C 156.828,311.881 157.494,306.881 157.5,301.5C 157.494,296.119 156.828,291.119 155.5,286.5C 155.611,285.883 155.944,285.383 156.5,285C 162.528,284.17 168.528,284.336 174.5,285.5C 174.838,287.655 174.838,289.989 174.5,292.5C 171.167,292.5 167.833,292.5 164.5,292.5C 164.5,294.167 164.5,295.833 164.5,297.5C 167.833,297.5 171.167,297.5 174.5,297.5C 174.5,300.167 174.5,302.833 174.5,305.5C 171.167,305.5 167.833,305.5 164.5,305.5C 164.5,307.167 164.5,308.833 164.5,310.5C 167.833,310.5 171.167,310.5 174.5,310.5C 174.238,311.978 174.571,313.311 175.5,314.5C 175.833,314.333 176.167,314.167 176.5,314C 179.257,309.147 182.257,304.48 185.5,300C 184.795,297.293 183.295,295.126 181,293.5C 179.716,290.47 178.549,287.47 177.5,284.5C 180.187,284.336 182.854,284.503 185.5,285C 187.62,287.409 189.62,289.909 191.5,292.5C 192.93,289.567 194.93,287.067 197.5,285C 200.482,284.502 203.482,284.335 206.5,284.5C 206.649,285.552 206.483,286.552 206,287.5C 202.773,291.471 199.94,295.638 197.5,300C 200.276,304.127 203.11,308.293 206,312.5C 210.627,304.298 214.294,295.632 217,286.5C 219.76,284.297 222.76,283.964 226,285.5C 230.592,294.947 234.592,304.613 238,314.5C 238.192,304.786 238.692,295.12 239.5,285.5C 241.765,284.353 244.098,284.186 246.5,285C 249.97,290.718 253.803,296.218 258,301.5C 258.214,296.115 258.714,290.781 259.5,285.5C 261.765,284.353 264.098,284.186 266.5,285C 267.487,295.752 267.82,306.585 267.5,317.5C 265.94,317.519 264.44,317.852 263,318.5C 261.5,318 260,317.5 258.5,317C 254.533,312.23 251.2,307.063 248.5,301.5 Z M 221.5,297.5 C 223.293,299.426 224.293,301.759 224.5,304.5C 222.571,304.769 220.905,304.269 219.5,303C 220.464,301.275 221.131,299.441 221.5,297.5 Z"/></g>
<g><path style="opacity:0.711" fill="#7727a4" d="M 155.5,286.5 C 156.828,291.119 157.494,296.119 157.5,301.5C 157.494,306.881 156.828,311.881 155.5,316.5C 155.5,306.5 155.5,296.5 155.5,286.5 Z"/></g>
<g><path style="opacity:0.502" fill="#8035aa" d="M 248.5,301.5 C 247.513,306.305 247.179,311.305 247.5,316.5C 246.182,313.742 245.515,310.576 245.5,307C 245.833,303.833 246.167,300.667 246.5,297.5C 247.362,298.766 248.029,300.099 248.5,301.5 Z"/></g>
<g><path style="opacity:0.952" fill="#d70ef9" d="M 152.5,328.5 C 153.117,328.611 153.617,328.944 154,329.5C 154.498,332.482 154.665,335.482 154.5,338.5C 155.833,338.5 157.167,338.5 158.5,338.5C 158.5,339.5 158.5,340.5 158.5,341.5C 156.167,341.5 153.833,341.5 151.5,341.5C 151.231,337.069 151.564,332.735 152.5,328.5 Z"/></g>
<g><path style="opacity:0.991" fill="#d50ff7" d="M 164.5,328.5 C 166.5,328.5 168.5,328.5 170.5,328.5C 170.5,329.833 170.5,331.167 170.5,332.5C 166.5,332.833 166.5,333.167 170.5,333.5C 170.5,334.833 170.5,336.167 170.5,337.5C 166.5,337.833 166.5,338.167 170.5,338.5C 170.5,339.5 170.5,340.5 170.5,341.5C 167.833,341.5 165.167,341.5 162.5,341.5C 161.999,336.847 162.666,332.514 164.5,328.5 Z"/></g>
<g><path style="opacity:0.959" fill="#d912f9" d="M 175.5,328.5 C 178.187,328.336 180.854,328.503 183.5,329C 184.337,330.011 184.67,331.178 184.5,332.5C 183.5,332.5 182.5,332.5 181.5,332.5C 181.5,335.5 181.5,338.5 181.5,341.5C 180.5,341.5 179.5,341.5 178.5,341.5C 178.5,338.5 178.5,335.5 178.5,332.5C 177.167,332.5 175.833,332.5 174.5,332.5C 174.433,331.041 174.766,329.708 175.5,328.5 Z"/></g>
<g><path style="opacity:1" fill="#d50ef9" d="M 189.5,328.5 C 192.167,328.5 194.833,328.5 197.5,328.5C 196.125,332.698 195.458,337.031 195.5,341.5C 194.167,341.5 192.833,341.5 191.5,341.5C 191.5,338.5 191.5,335.5 191.5,332.5C 190.5,332.5 189.5,332.5 188.5,332.5C 188.433,331.041 188.766,329.708 189.5,328.5 Z"/></g>
<g><path style="opacity:1" fill="#d70cf9" d="M 216.5,328.5 C 218.92,328.292 221.253,328.626 223.5,329.5C 223.984,333.6 224.318,337.6 224.5,341.5C 222.549,341.773 221.049,341.107 220,339.5C 218.951,341.107 217.451,341.773 215.5,341.5C 215.231,337.069 215.564,332.735 216.5,328.5 Z"/></g>
<g><path style="opacity:0.997" fill="#da0bf8" d="M 239.5,328.5 C 240.5,328.5 241.5,328.5 242.5,328.5C 242.5,331.833 242.5,335.167 242.5,338.5C 243.833,338.5 245.167,338.5 246.5,338.5C 246.5,339.5 246.5,340.5 246.5,341.5C 243.881,341.768 241.381,341.435 239,340.5C 238.238,336.413 238.404,332.413 239.5,328.5 Z"/></g>
<g><path style="opacity:0.976" fill="#d613f8" d="M 289.5,328.5 C 297.72,329.055 300.053,333.055 296.5,340.5C 288.914,343.64 285.081,341.306 285,333.5C 286.025,331.313 287.525,329.646 289.5,328.5 Z M 289.5,332.5 C 295.175,332.86 295.842,334.86 291.5,338.5C 288.513,337.205 287.846,335.205 289.5,332.5 Z"/></g>
<g><path style="opacity:0.963" fill="#d90dfa" d="M 255.5,328.5 C 263.996,329.17 266.33,333.337 262.5,341C 258.909,341.789 255.409,341.622 252,340.5C 251.333,337.5 251.333,334.5 252,331.5C 253.145,330.364 254.312,329.364 255.5,328.5 Z M 255.5,332.5 C 260.159,332.015 261.492,333.848 259.5,338C 255.266,338.267 253.933,336.434 255.5,332.5 Z"/></g>
<g><path style="opacity:0.78" fill="#d407f5" d="M 203.5,328.5 C 205.5,328.5 207.5,328.5 209.5,328.5C 209.5,329.833 209.5,331.167 209.5,332.5C 205.5,332.833 205.5,333.167 209.5,333.5C 209.5,334.833 209.5,336.167 209.5,337.5C 208.448,337.351 207.448,337.517 206.5,338C 208.286,338.196 209.619,339.029 210.5,340.5C 207.914,341.48 205.247,341.813 202.5,341.5C 202.231,337.069 202.564,332.735 203.5,328.5 Z"/></g>
<g><path style="opacity:1" fill="#d717f9" d="M 273.5,328.5 C 275.167,328.5 276.833,328.5 278.5,328.5C 278.5,329.833 278.5,331.167 278.5,332.5C 273.547,332.322 272.381,334.322 275,338.5C 275.112,335.553 276.612,334.22 279.5,334.5C 279.5,336.833 279.5,339.167 279.5,341.5C 271,343.167 267.833,339.834 270,331.5C 271.145,330.364 272.312,329.364 273.5,328.5 Z"/></g>
</svg>
